<?xml version="1.0" encoding="utf-8"?>
<!-- Svg Vector Icons : http://www.onlinewebfonts.com/icon -->
<!DOCTYPE svg PUBLIC "-//W3C//DTD SVG 1.1//EN" "http://www.w3.org/Graphics/SVG/1.1/DTD/svg11.dtd">
<svg version="1.1" xmlns="http://www.w3.org/2000/svg" xmlns:xlink="http://www.w3.org/1999/xlink" x="0px" y="0px" viewBox="0 0 256 256" enable-background="new 0 0 256 256" xml:space="preserve">
<metadata> Svg Vector Icons : http://www.onlinewebfonts.com/icon </metadata>
<g><g><g><path fill="#000000" d="M66,10.9c-1.1,0.5-2.4,1.6-3,2.4l-1.1,1.6l-0.1,48.3l-0.1,48.3H38.9c-22.6,0-22.7,0-24.8,1c-1.5,0.8-2.4,1.6-3.1,3.1l-1,2v61.1v61.1l1.1,2c0.7,1.5,1.6,2.4,3.1,3.1l2,1H128h111.8l2-1.1c1.5-0.7,2.4-1.6,3.1-3.1l1-2v-68c0-66.1,0-68-0.9-69.9c-0.5-1.1-1.5-2.4-2.3-2.8c-0.7-0.5-17.4-8.6-36.9-18.1l-35.5-17.2V40c0-23.7,0-23.8-1-25.8c-0.8-1.5-1.6-2.4-3.1-3.1l-2-1H116C70.1,10,67.8,10,66,10.9z M159.3,67.4l-0.1,46.4L136.3,126l-22.8,12.1l-0.2-11.7l-0.2-11.8l-1.5-1.5l-1.5-1.5l-18.7-0.1l-18.7-0.1V66.2V21.1H116h43.3L159.3,67.4z M203.3,91.8l31.4,15.3l0.1,63.9l0.1,63.9h-60.8h-60.8l0.1-42.2l0.1-42.3l27.2-14.4c14.9-8,27.7-15,28.3-15.6l1.2-1.2l0.1-21.7c0.1-19.2,0.2-21.6,0.8-21.3C171.5,76.4,186,83.4,203.3,91.8z M102.2,178.7v56.2H61.6H21.1v-56.2v-56.2h40.6h40.6L102.2,178.7L102.2,178.7z"/><path fill="#000000" d="M93.9,58.9v8.3h8.3h8.3v-8.3v-8.3h-8.3h-8.3V58.9z"/><path fill="#000000" d="M125.2,58.9v8.3h8.3h8.3v-8.3v-8.3h-8.3h-8.3V58.9z"/><path fill="#000000" d="M93.9,91.1v8.3h8.3h8.3v-8.3v-8.3h-8.3h-8.3V91.1z"/><path fill="#000000" d="M125.2,91.1v8.3h8.3h8.3v-8.3v-8.3h-8.3h-8.3V91.1z"/><path fill="#000000" d="M192.5,134.5v10.1h12h12v-10.1v-10.1h-12h-12L192.5,134.5L192.5,134.5z"/><path fill="#000000" d="M128,170.4v10.1h12h12v-10.1v-10.1h-12h-12V170.4z"/><path fill="#000000" d="M160.3,170.4v10.1h12h12v-10.1v-10.1h-12h-12V170.4z"/><path fill="#000000" d="M192.5,170.4v10.1h12h12v-10.1v-10.1h-12h-12L192.5,170.4L192.5,170.4z"/><path fill="#000000" d="M128,206.4v10.1h12h12v-10.1v-10.1h-12h-12V206.4z"/><path fill="#000000" d="M192.5,206.4v10.1h12h12v-10.1v-10.1h-12h-12L192.5,206.4L192.5,206.4z"/><path fill="#000000" d="M41.3,146.4v7.4h7.4h7.4v-7.4v-7.4h-7.4h-7.4V146.4L41.3,146.4z"/><path fill="#000000" d="M70.8,146.4v7.4h7.4h7.4v-7.4v-7.4h-7.4h-7.4V146.4z"/><path fill="#000000" d="M41.3,175.9v7.4h7.4h7.4v-7.4v-7.4h-7.4h-7.4V175.9L41.3,175.9z"/><path fill="#000000" d="M70.8,175.9v7.4h7.4h7.4v-7.4v-7.4h-7.4h-7.4V175.9z"/><path fill="#000000" d="M56.1,206.4v10.1h7.4h7.4v-10.1v-10.1h-7.4h-7.4V206.4L56.1,206.4z"/></g></g></g>
</svg>